<mxfile host="app.diagrams.net" modified="2024-02-02T21:42:30.754Z" agent="Mozilla/5.0 (Windows NT 10.0; Win64; x64) AppleWebKit/537.36 (KHTML, like Gecko) Chrome/121.0.0.0 Safari/537.36" etag="DK7qSYCgJzrQeVN5oDyt" version="23.1.1" type="github">
  <diagram name="Página-1" id="PZbxfM9SncY2pCMzYws2">
    <mxGraphModel dx="1050" dy="530" grid="1" gridSize="10" guides="1" tooltips="1" connect="1" arrows="1" fold="1" page="1" pageScale="1" pageWidth="827" pageHeight="1169" math="0" shadow="0">
      <root>
        <mxCell id="0" />
        <mxCell id="1" parent="0" />
        <mxCell id="xPmQs6dkGCCImseQwBen-8" value="INSTRUTOR" style="whiteSpace=wrap;html=1;align=center;" vertex="1" parent="1">
          <mxGeometry x="40" y="140" width="100" height="40" as="geometry" />
        </mxCell>
        <mxCell id="xPmQs6dkGCCImseQwBen-9" value="MATRICULA" style="whiteSpace=wrap;html=1;align=center;" vertex="1" parent="1">
          <mxGeometry x="106" y="440" width="100" height="40" as="geometry" />
        </mxCell>
        <mxCell id="xPmQs6dkGCCImseQwBen-10" value="TREINO" style="whiteSpace=wrap;html=1;align=center;" vertex="1" parent="1">
          <mxGeometry x="470" y="230" width="100" height="40" as="geometry" />
        </mxCell>
        <mxCell id="xPmQs6dkGCCImseQwBen-11" value="EQUIPAMENTO" style="whiteSpace=wrap;html=1;align=center;" vertex="1" parent="1">
          <mxGeometry x="690" y="130" width="100" height="40" as="geometry" />
        </mxCell>
        <mxCell id="xPmQs6dkGCCImseQwBen-12" value="MANUTENÇÃO" style="whiteSpace=wrap;html=1;align=center;" vertex="1" parent="1">
          <mxGeometry x="690" y="190" width="100" height="40" as="geometry" />
        </mxCell>
        <mxCell id="xPmQs6dkGCCImseQwBen-13" value="CLIENTE" style="whiteSpace=wrap;html=1;align=center;" vertex="1" parent="1">
          <mxGeometry x="470" y="440" width="100" height="40" as="geometry" />
        </mxCell>
        <mxCell id="xPmQs6dkGCCImseQwBen-14" value="nome" style="ellipse;whiteSpace=wrap;html=1;align=center;" vertex="1" parent="1">
          <mxGeometry x="10" y="70" width="60" height="40" as="geometry" />
        </mxCell>
        <mxCell id="xPmQs6dkGCCImseQwBen-19" value="email" style="ellipse;whiteSpace=wrap;html=1;align=center;" vertex="1" parent="1">
          <mxGeometry x="80" y="40" width="60" height="40" as="geometry" />
        </mxCell>
        <mxCell id="xPmQs6dkGCCImseQwBen-20" value="telefone" style="ellipse;whiteSpace=wrap;html=1;align=center;" vertex="1" parent="1">
          <mxGeometry x="140" y="60" width="60" height="40" as="geometry" />
        </mxCell>
        <mxCell id="xPmQs6dkGCCImseQwBen-26" value="" style="endArrow=none;html=1;rounded=0;entryX=0.088;entryY=-0.02;entryDx=0;entryDy=0;entryPerimeter=0;" edge="1" parent="1" source="xPmQs6dkGCCImseQwBen-14" target="xPmQs6dkGCCImseQwBen-8">
          <mxGeometry relative="1" as="geometry">
            <mxPoint x="10" y="90" as="sourcePoint" />
            <mxPoint x="170" y="90" as="targetPoint" />
          </mxGeometry>
        </mxCell>
        <mxCell id="xPmQs6dkGCCImseQwBen-27" value="" style="endArrow=none;html=1;rounded=0;entryX=0.5;entryY=0;entryDx=0;entryDy=0;exitX=0.327;exitY=1.02;exitDx=0;exitDy=0;exitPerimeter=0;" edge="1" parent="1" source="xPmQs6dkGCCImseQwBen-19" target="xPmQs6dkGCCImseQwBen-8">
          <mxGeometry relative="1" as="geometry">
            <mxPoint x="100" y="60" as="sourcePoint" />
            <mxPoint x="124" y="130" as="targetPoint" />
            <Array as="points" />
          </mxGeometry>
        </mxCell>
        <mxCell id="xPmQs6dkGCCImseQwBen-28" value="" style="endArrow=none;html=1;rounded=0;exitX=0.333;exitY=0.92;exitDx=0;exitDy=0;exitPerimeter=0;entryX=0.75;entryY=0;entryDx=0;entryDy=0;" edge="1" parent="1" source="xPmQs6dkGCCImseQwBen-20" target="xPmQs6dkGCCImseQwBen-8">
          <mxGeometry relative="1" as="geometry">
            <mxPoint x="120" y="60" as="sourcePoint" />
            <mxPoint x="140" y="130" as="targetPoint" />
            <Array as="points" />
          </mxGeometry>
        </mxCell>
        <mxCell id="xPmQs6dkGCCImseQwBen-30" value="HORÁRIOS" style="whiteSpace=wrap;html=1;align=center;" vertex="1" parent="1">
          <mxGeometry x="40" y="330" width="100" height="40" as="geometry" />
        </mxCell>
        <mxCell id="xPmQs6dkGCCImseQwBen-31" value="ESPECIALIDADE" style="whiteSpace=wrap;html=1;align=center;" vertex="1" parent="1">
          <mxGeometry x="220" y="40" width="110" height="40" as="geometry" />
        </mxCell>
        <mxCell id="xPmQs6dkGCCImseQwBen-32" value="CONTEM" style="shape=rhombus;perimeter=rhombusPerimeter;whiteSpace=wrap;html=1;align=center;" vertex="1" parent="1">
          <mxGeometry x="30" y="230" width="120" height="60" as="geometry" />
        </mxCell>
        <mxCell id="xPmQs6dkGCCImseQwBen-33" value="TEM" style="shape=rhombus;perimeter=rhombusPerimeter;whiteSpace=wrap;html=1;align=center;" vertex="1" parent="1">
          <mxGeometry x="206" y="130" width="120" height="60" as="geometry" />
        </mxCell>
        <mxCell id="xPmQs6dkGCCImseQwBen-35" value="cod_matricula" style="ellipse;whiteSpace=wrap;html=1;align=center;" vertex="1" parent="1">
          <mxGeometry x="40" y="505" width="100" height="40" as="geometry" />
        </mxCell>
        <mxCell id="xPmQs6dkGCCImseQwBen-36" value="atividade" style="ellipse;whiteSpace=wrap;html=1;align=center;" vertex="1" parent="1">
          <mxGeometry x="390" y="160" width="70" height="50" as="geometry" />
        </mxCell>
        <mxCell id="xPmQs6dkGCCImseQwBen-37" value="id" style="ellipse;whiteSpace=wrap;html=1;align=center;" vertex="1" parent="1">
          <mxGeometry x="379" y="15" width="50" height="30" as="geometry" />
        </mxCell>
        <mxCell id="xPmQs6dkGCCImseQwBen-44" value="" style="endArrow=none;html=1;rounded=0;entryX=1;entryY=0.5;entryDx=0;entryDy=0;exitX=0;exitY=0.5;exitDx=0;exitDy=0;" edge="1" parent="1" source="xPmQs6dkGCCImseQwBen-33" target="xPmQs6dkGCCImseQwBen-8">
          <mxGeometry relative="1" as="geometry">
            <mxPoint x="180" y="57" as="sourcePoint" />
            <mxPoint x="140" y="150" as="targetPoint" />
            <Array as="points" />
          </mxGeometry>
        </mxCell>
        <mxCell id="xPmQs6dkGCCImseQwBen-46" value="" style="endArrow=none;html=1;rounded=0;" edge="1" parent="1" source="xPmQs6dkGCCImseQwBen-8" target="xPmQs6dkGCCImseQwBen-32">
          <mxGeometry relative="1" as="geometry">
            <mxPoint x="117.5" y="160" as="sourcePoint" />
            <mxPoint x="62.5" y="253" as="targetPoint" />
            <Array as="points" />
          </mxGeometry>
        </mxCell>
        <mxCell id="xPmQs6dkGCCImseQwBen-47" value="" style="endArrow=none;html=1;rounded=0;" edge="1" parent="1">
          <mxGeometry relative="1" as="geometry">
            <mxPoint x="89.5" y="290" as="sourcePoint" />
            <mxPoint x="89.5" y="330" as="targetPoint" />
            <Array as="points" />
          </mxGeometry>
        </mxCell>
        <mxCell id="xPmQs6dkGCCImseQwBen-50" value="" style="endArrow=none;html=1;rounded=0;entryX=0.5;entryY=0;entryDx=0;entryDy=0;exitX=0.455;exitY=1;exitDx=0;exitDy=0;exitPerimeter=0;" edge="1" parent="1" source="xPmQs6dkGCCImseQwBen-31" target="xPmQs6dkGCCImseQwBen-33">
          <mxGeometry relative="1" as="geometry">
            <mxPoint x="380" y="159.5" as="sourcePoint" />
            <mxPoint x="320" y="159.5" as="targetPoint" />
            <Array as="points" />
          </mxGeometry>
        </mxCell>
        <mxCell id="xPmQs6dkGCCImseQwBen-52" value="MONTA" style="shape=rhombus;perimeter=rhombusPerimeter;whiteSpace=wrap;html=1;align=center;" vertex="1" parent="1">
          <mxGeometry x="230" y="220" width="120" height="60" as="geometry" />
        </mxCell>
        <mxCell id="xPmQs6dkGCCImseQwBen-53" value="" style="endArrow=none;html=1;rounded=0;entryX=1;entryY=1;entryDx=0;entryDy=0;" edge="1" parent="1">
          <mxGeometry relative="1" as="geometry">
            <mxPoint x="230" y="250" as="sourcePoint" />
            <mxPoint x="130" y="180" as="targetPoint" />
            <Array as="points">
              <mxPoint x="230" y="250" />
              <mxPoint x="190" y="220" />
            </Array>
          </mxGeometry>
        </mxCell>
        <mxCell id="xPmQs6dkGCCImseQwBen-55" value="" style="endArrow=none;html=1;rounded=0;entryX=1;entryY=0.5;entryDx=0;entryDy=0;exitX=0;exitY=0.5;exitDx=0;exitDy=0;" edge="1" parent="1" source="xPmQs6dkGCCImseQwBen-10" target="xPmQs6dkGCCImseQwBen-52">
          <mxGeometry relative="1" as="geometry">
            <mxPoint x="380" y="310" as="sourcePoint" />
            <mxPoint x="290" y="270" as="targetPoint" />
            <Array as="points" />
          </mxGeometry>
        </mxCell>
        <mxCell id="xPmQs6dkGCCImseQwBen-56" value="PERTENCE" style="shape=rhombus;perimeter=rhombusPerimeter;whiteSpace=wrap;html=1;align=center;" vertex="1" parent="1">
          <mxGeometry x="460" y="320" width="120" height="60" as="geometry" />
        </mxCell>
        <mxCell id="xPmQs6dkGCCImseQwBen-57" value="" style="endArrow=none;html=1;rounded=0;entryX=1;entryY=0.5;entryDx=0;entryDy=0;" edge="1" parent="1">
          <mxGeometry relative="1" as="geometry">
            <mxPoint x="520" y="440" as="sourcePoint" />
            <mxPoint x="520" y="380" as="targetPoint" />
            <Array as="points" />
          </mxGeometry>
        </mxCell>
        <mxCell id="xPmQs6dkGCCImseQwBen-59" value="" style="endArrow=none;html=1;rounded=0;entryX=0.5;entryY=1;entryDx=0;entryDy=0;exitX=0.5;exitY=0;exitDx=0;exitDy=0;" edge="1" parent="1" source="xPmQs6dkGCCImseQwBen-56" target="xPmQs6dkGCCImseQwBen-10">
          <mxGeometry relative="1" as="geometry">
            <mxPoint x="473.5" y="330" as="sourcePoint" />
            <mxPoint x="473.5" y="270" as="targetPoint" />
            <Array as="points" />
          </mxGeometry>
        </mxCell>
        <mxCell id="xPmQs6dkGCCImseQwBen-60" value="PERTENCE" style="shape=rhombus;perimeter=rhombusPerimeter;whiteSpace=wrap;html=1;align=center;" vertex="1" parent="1">
          <mxGeometry x="260" y="430" width="110" height="60" as="geometry" />
        </mxCell>
        <mxCell id="xPmQs6dkGCCImseQwBen-61" value="" style="endArrow=none;html=1;rounded=0;exitX=0;exitY=0.5;exitDx=0;exitDy=0;" edge="1" parent="1" source="xPmQs6dkGCCImseQwBen-13" target="xPmQs6dkGCCImseQwBen-60">
          <mxGeometry relative="1" as="geometry">
            <mxPoint x="423" y="460" as="sourcePoint" />
            <mxPoint x="373" y="459.5" as="targetPoint" />
            <Array as="points" />
          </mxGeometry>
        </mxCell>
        <mxCell id="xPmQs6dkGCCImseQwBen-63" value="" style="endArrow=none;html=1;rounded=0;" edge="1" parent="1">
          <mxGeometry relative="1" as="geometry">
            <mxPoint x="260" y="459.5" as="sourcePoint" />
            <mxPoint x="207" y="459.5" as="targetPoint" />
            <Array as="points" />
          </mxGeometry>
        </mxCell>
        <mxCell id="xPmQs6dkGCCImseQwBen-65" value="series" style="ellipse;whiteSpace=wrap;html=1;align=center;" vertex="1" parent="1">
          <mxGeometry x="450" y="120" width="70" height="50" as="geometry" />
        </mxCell>
        <mxCell id="xPmQs6dkGCCImseQwBen-66" value="repetições" style="ellipse;whiteSpace=wrap;html=1;align=center;" vertex="1" parent="1">
          <mxGeometry x="530" y="110" width="70" height="50" as="geometry" />
        </mxCell>
        <mxCell id="xPmQs6dkGCCImseQwBen-67" value="descanso" style="ellipse;whiteSpace=wrap;html=1;align=center;" vertex="1" parent="1">
          <mxGeometry x="590" y="150" width="70" height="50" as="geometry" />
        </mxCell>
        <mxCell id="xPmQs6dkGCCImseQwBen-68" value="" style="endArrow=none;html=1;rounded=0;entryX=0.5;entryY=0;entryDx=0;entryDy=0;exitX=0.5;exitY=1;exitDx=0;exitDy=0;" edge="1" parent="1" source="xPmQs6dkGCCImseQwBen-66">
          <mxGeometry relative="1" as="geometry">
            <mxPoint x="550" y="160" as="sourcePoint" />
            <mxPoint x="550" y="230" as="targetPoint" />
            <Array as="points" />
          </mxGeometry>
        </mxCell>
        <mxCell id="xPmQs6dkGCCImseQwBen-69" value="" style="endArrow=none;html=1;rounded=0;exitX=0.314;exitY=0.984;exitDx=0;exitDy=0;entryX=0.888;entryY=0;entryDx=0;entryDy=0;entryPerimeter=0;exitPerimeter=0;" edge="1" parent="1" source="xPmQs6dkGCCImseQwBen-67" target="xPmQs6dkGCCImseQwBen-10">
          <mxGeometry relative="1" as="geometry">
            <mxPoint x="595" y="165" as="sourcePoint" />
            <mxPoint x="590" y="255" as="targetPoint" />
            <Array as="points" />
          </mxGeometry>
        </mxCell>
        <mxCell id="xPmQs6dkGCCImseQwBen-70" value="" style="endArrow=none;html=1;rounded=0;entryX=0.384;entryY=-0.02;entryDx=0;entryDy=0;exitX=0.571;exitY=1;exitDx=0;exitDy=0;entryPerimeter=0;exitPerimeter=0;" edge="1" parent="1" source="xPmQs6dkGCCImseQwBen-65" target="xPmQs6dkGCCImseQwBen-10">
          <mxGeometry relative="1" as="geometry">
            <mxPoint x="485" y="140" as="sourcePoint" />
            <mxPoint x="480" y="230" as="targetPoint" />
            <Array as="points" />
          </mxGeometry>
        </mxCell>
        <mxCell id="xPmQs6dkGCCImseQwBen-71" value="" style="endArrow=none;html=1;rounded=0;" edge="1" parent="1" source="xPmQs6dkGCCImseQwBen-36">
          <mxGeometry relative="1" as="geometry">
            <mxPoint x="440" y="180" as="sourcePoint" />
            <mxPoint x="480" y="230" as="targetPoint" />
            <Array as="points" />
          </mxGeometry>
        </mxCell>
        <mxCell id="xPmQs6dkGCCImseQwBen-72" value="nome" style="ellipse;whiteSpace=wrap;html=1;align=center;" vertex="1" parent="1">
          <mxGeometry x="585" y="545" width="69" height="40" as="geometry" />
        </mxCell>
        <mxCell id="xPmQs6dkGCCImseQwBen-73" value="email" style="ellipse;whiteSpace=wrap;html=1;align=center;" vertex="1" parent="1">
          <mxGeometry x="485.5" y="540" width="69" height="40" as="geometry" />
        </mxCell>
        <mxCell id="xPmQs6dkGCCImseQwBen-74" value="telefone" style="ellipse;whiteSpace=wrap;html=1;align=center;" vertex="1" parent="1">
          <mxGeometry x="401" y="540" width="69" height="45" as="geometry" />
        </mxCell>
        <mxCell id="xPmQs6dkGCCImseQwBen-75" value="" style="endArrow=none;html=1;rounded=0;entryX=1;entryY=0.5;entryDx=0;entryDy=0;" edge="1" parent="1">
          <mxGeometry relative="1" as="geometry">
            <mxPoint x="520" y="540" as="sourcePoint" />
            <mxPoint x="520" y="480" as="targetPoint" />
            <Array as="points" />
          </mxGeometry>
        </mxCell>
        <mxCell id="xPmQs6dkGCCImseQwBen-76" value="" style="endArrow=none;html=1;rounded=0;entryX=1;entryY=0.5;entryDx=0;entryDy=0;exitX=0.281;exitY=0.125;exitDx=0;exitDy=0;exitPerimeter=0;" edge="1" parent="1" source="xPmQs6dkGCCImseQwBen-72">
          <mxGeometry relative="1" as="geometry">
            <mxPoint x="554.5" y="540" as="sourcePoint" />
            <mxPoint x="554.5" y="480" as="targetPoint" />
            <Array as="points" />
          </mxGeometry>
        </mxCell>
        <mxCell id="xPmQs6dkGCCImseQwBen-77" value="" style="endArrow=none;html=1;rounded=0;entryX=1;entryY=0.5;entryDx=0;entryDy=0;" edge="1" parent="1">
          <mxGeometry relative="1" as="geometry">
            <mxPoint x="440" y="540" as="sourcePoint" />
            <mxPoint x="485.5" y="480" as="targetPoint" />
            <Array as="points" />
          </mxGeometry>
        </mxCell>
        <mxCell id="xPmQs6dkGCCImseQwBen-78" value="" style="endArrow=none;html=1;rounded=0;entryX=0.764;entryY=0.05;entryDx=0;entryDy=0;entryPerimeter=0;" edge="1" parent="1" target="xPmQs6dkGCCImseQwBen-35">
          <mxGeometry relative="1" as="geometry">
            <mxPoint x="120" y="480" as="sourcePoint" />
            <mxPoint x="120" y="520" as="targetPoint" />
            <Array as="points" />
          </mxGeometry>
        </mxCell>
      </root>
    </mxGraphModel>
  </diagram>
</mxfile>
